<?xml version="1.0" encoding="UTF-8" standalone="no"?>
<svg
   xmlns:dc="http://purl.org/dc/elements/1.1/"
   xmlns:cc="http://creativecommons.org/ns#"
   xmlns:rdf="http://www.w3.org/1999/02/22-rdf-syntax-ns#"
   xmlns:svg="http://www.w3.org/2000/svg"
   xmlns="http://www.w3.org/2000/svg"
   xmlns:sodipodi="http://sodipodi.sourceforge.net/DTD/sodipodi-0.dtd"
   xmlns:inkscape="http://www.inkscape.org/namespaces/inkscape"
   color-rendering="auto"
   color-interpolation="auto"
   text-rendering="auto"
   stroke-miterlimit="10"
   shape-rendering="auto"
   font-weight="normal"
   font-style="normal"
   font-size="12"
   image-rendering="auto"
   id="svg2"
   version="1.1"
   inkscape:version="0.48.4 r9939"
   width="215"
   height="215"
   sodipodi:docname="union.svg"
   style="font-size:12px;font-style:normal;font-weight:normal;fill:#000000;fill-opacity:1;stroke:#000000;stroke-width:1;stroke-linecap:square;stroke-linejoin:miter;stroke-miterlimit:10;stroke-opacity:1;stroke-dasharray:none;stroke-dashoffset:0;font-family:Dialog"
   inkscape:export-filename="D:\Downloads\diff.png"
   inkscape:export-xdpi="13.4"
   inkscape:export-ydpi="13.4">
  <metadata
     id="metadata13">
    <rdf:RDF>
      <cc:Work
         rdf:about="">
        <dc:format>image/svg+xml</dc:format>
        <dc:type
           rdf:resource="http://purl.org/dc/dcmitype/StillImage" />
        <dc:title></dc:title>
      </cc:Work>
    </rdf:RDF>
  </metadata>
  <sodipodi:namedview
     pagecolor="#ffffff"
     bordercolor="#666666"
     borderopacity="1"
     objecttolerance="10"
     gridtolerance="10"
     guidetolerance="10"
     inkscape:pageopacity="0"
     inkscape:pageshadow="2"
     inkscape:window-width="1920"
     inkscape:window-height="1138"
     id="namedview11"
     showgrid="false"
     fit-margin-top="0"
     fit-margin-left="0"
     fit-margin-right="0"
     fit-margin-bottom="0"
     inkscape:zoom="2.3315322"
     inkscape:cx="74.958729"
     inkscape:cy="23.314558"
     inkscape:window-x="-8"
     inkscape:window-y="-8"
     inkscape:window-maximized="1"
     inkscape:current-layer="svg2" />
  <!--Unicode Character 'UNION' (U+222A)-->
  <defs
     id="genericDefs" />
  <g
     id="g5"
     transform="translate(-43.76971,33.719093)">
    <g
       id="g7">
      <path
         d="m 147.5156,319.9219 q 0,25.3125 -18.8437,45.6328 -18.8438,20.3203 -47.8125,20.3203 -28.8282,0 -47.6719,-20.4609 -18.8437,-20.461 -18.8437,-45.211 l 0,-97.875 23.625,0 0,98.7188 q 0,15.1875 12.0937,28.3359 12.0937,13.1484 30.7969,13.1484 19.125,0 31.0781,-13.0078 11.9531,-13.0078 11.9531,-28.1953 l 0,-99 23.625,0 0,97.5938 z"
         id="path9"
         inkscape:connector-curvature="0"
         style="stroke:none" />
    </g>
  </g>
  <g
     style="font-size:12px;font-style:normal;font-weight:normal;fill:#000000;fill-opacity:1;stroke:#000000;stroke-width:1;stroke-linecap:square;stroke-linejoin:miter;stroke-miterlimit:10;stroke-opacity:1;stroke-dasharray:none;stroke-dashoffset:0;font-family:Dialog"
     id="g3003"
     transform="translate(67.4922,-178.7422)">
    <g
       id="g2993">
      <g
         id="g2995">
        <path
           id="path2997"
           d="m 80.0156,392.7656 -20.3906,0 L 0,179.7188 l 20.3906,0 59.625,213.0468 z"
           inkscape:connector-curvature="0"
           style="stroke:none" />
      </g>
    </g>
  </g>
  <g
     style="font-size:12px;font-style:normal;font-weight:normal;fill:#000000;fill-opacity:1;stroke:#000000;stroke-width:1;stroke-linecap:square;stroke-linejoin:miter;stroke-miterlimit:10;stroke-opacity:1;stroke-dasharray:none;stroke-dashoffset:0;font-family:Dialog"
     id="g3021"
     transform="translate(121.35775,38.437021)">
    <g
       id="g3011">
      <g
         id="g3013">
        <path
           id="path3015"
           d="m 147.5156,385.875 -23.625,0 0,-99.1406 q 0,-14.4844 -11.6015,-27.7735 -11.6016,-13.289 -31.4297,-13.289 -18.7032,0 -30.7969,13.1484 -12.0937,13.1485 -12.0937,28.3359 l 0,98.7188 -23.625,0 0,-97.875 q 0,-24.75 18.8437,-45.2109 18.8437,-20.461 47.6719,-20.461 28.9687,0 47.8125,20.3203 18.8437,20.3204 18.8437,45.6328 l 0,97.5938 z"
           inkscape:connector-curvature="0"
           style="stroke:none" />
      </g>
    </g>
  </g>
</svg>
